<?xml version="1.0" encoding="iso-8859-1"?>
<!-- Generator: Adobe Illustrator 19.2.1, SVG Export Plug-In . SVG Version: 6.00 Build 0)  -->
<svg version="1.1" xmlns="http://www.w3.org/2000/svg" xmlns:xlink="http://www.w3.org/1999/xlink" x="0px" y="0px"
	 viewBox="0 0 14 32" style="enable-background:new 0 0 14 32;" xml:space="preserve">
<g id="alcohol">
	<g>
		<circle cx="9" cy="7" r="1"/>
		<path d="M14,14V1c0-0.553-0.448-1-1-1H1C0.448,0,0,0.447,0,1v13c0,3.524,2.621,6.441,6.016,6.922C6.013,20.949,6,20.973,6,21
			v8.101c-0.635,0.12-1.148,0.328-1.578,0.513C3.919,29.829,3.522,30,3,30c-0.552,0-1,0.447-1,1s0.448,1,1,1
			c0.933,0,1.612-0.291,2.211-0.549C5.775,31.209,6.262,31,7,31s1.225,0.209,1.789,0.451C9.388,31.709,10.067,32,11,32
			c0.552,0,1-0.447,1-1s-0.448-1-1-1c-0.522,0-0.919-0.171-1.422-0.387C9.148,29.428,8.635,29.221,8,29.101V21
			c0-0.027-0.013-0.051-0.016-0.078C11.379,20.441,14,17.524,14,14z M7,19c-2.757,0-5-2.243-5-5V8h4c0.552,0,1-0.447,1-1
			S6.552,6,6,6H2V2h10v12C12,16.757,9.757,19,7,19z"/>
	</g>
</g>
<g id="Layer_1">
</g>
</svg>
