<?xml version="1.0" encoding="iso-8859-1"?>
<!-- Generator: Adobe Illustrator 19.1.0, SVG Export Plug-In . SVG Version: 6.00 Build 0)  -->
<svg version="1.1" xmlns="http://www.w3.org/2000/svg" xmlns:xlink="http://www.w3.org/1999/xlink" x="0px" y="0px"
	 viewBox="0 0 24 32" style="enable-background:new 0 0 24 32;" xml:space="preserve">
<g id="egg">
	<g>
		<path d="M20.74,6.967C18.346,2.475,15.243,0,12,0S5.654,2.475,3.26,6.967C1.25,10.743,0,15.545,0,19.5C0,27.094,4.71,32,12,32
			s12-4.906,12-12.5C24,15.545,22.75,10.743,20.74,6.967z M12,30C4.627,30,2,24.576,2,19.5C2,12.589,6.48,2,12,2s10,10.589,10,17.5
			C22,24.576,19.373,30,12,30z"/>
		<path d="M12,13c-3.86,0-7,3.141-7,7s3.14,7,7,7s7-3.141,7-7S15.86,13,12,13z M12,25c-2.757,0-5-2.243-5-5s2.243-5,5-5s5,2.243,5,5
			S14.757,25,12,25z"/>
	</g>
</g>
<g id="Layer_1">
</g>
</svg>
