<?xml version="1.0" encoding="utf-8"?>
<!-- Generator: Adobe Illustrator 19.2.1, SVG Export Plug-In . SVG Version: 6.00 Build 0)  -->
<svg version="1.1" id="Layer_1" xmlns="http://www.w3.org/2000/svg" xmlns:xlink="http://www.w3.org/1999/xlink" x="0px" y="0px"
	 viewBox="0 0 14 32" style="enable-background:new 0 0 14 32;" xml:space="preserve">
<style type="text/css">
	.st0{fill:#231F20;}
</style>
<g id="Layer_1_1_">
</g>
<path class="st0" d="M13,15h-2c-0.6,0-1,0.4-1,1v11c0,1.7-1.3,3-3,3s-3-1.3-3-3V17h2v6c0,0.6,0.4,1,1,1s1-0.4,1-1v-9.1
	c2.5-0.4,4-2.2,4-5c0-3-3.8-8-4.2-8.5c-0.4-0.5-1.2-0.5-1.6,0C5.8,0.9,2,5.9,2,8.9c0,3,1.9,4.6,4,5V15H1c-0.6,0-1,0.4-1,1s0.4,1,1,1
	h1v10c0,2.8,2.2,5,5,5s5-2.2,5-5V17h1c0.6,0,1-0.4,1-1S13.6,15,13,15z M4,8.9c0-1.5,1.6-4.3,3-6.2c1.4,2,3,4.8,3,6.2
	c0,2.5-1.6,3.1-3,3.1C6.5,12,4,11.8,4,8.9z"/>
</svg>
